<svg width="18" height="19" viewBox="0 0 18 19" fill="none" xmlns="http://www.w3.org/2000/svg">
<path d="M15 6.5L10.5 2.555C10.0875 2.18604 9.55345 1.98206 9 1.98206C8.44655 1.98206 7.91252 2.18604 7.5 2.555L3 6.5C2.76178 6.71306 2.57168 6.97442 2.44236 7.26669C2.31304 7.55895 2.24746 7.87542 2.25 8.195V14.75C2.25 15.3467 2.48706 15.919 2.90901 16.341C3.33097 16.763 3.90327 17 4.5 17H13.5C14.0967 17 14.669 16.763 15.091 16.341C15.5129 15.919 15.75 15.3467 15.75 14.75V8.1875C15.7515 7.86918 15.6854 7.55416 15.5561 7.26327C15.4268 6.97237 15.2373 6.71222 15 6.5ZM10.5 15.5H7.5V11.75C7.5 11.5511 7.57902 11.3603 7.71967 11.2197C7.86032 11.079 8.05109 11 8.25 11H9.75C9.94891 11 10.1397 11.079 10.2803 11.2197C10.421 11.3603 10.5 11.5511 10.5 11.75V15.5ZM14.25 14.75C14.25 14.9489 14.171 15.1397 14.0303 15.2803C13.8897 15.421 13.6989 15.5 13.5 15.5H12V11.75C12 11.1533 11.7629 10.581 11.341 10.159C10.919 9.73706 10.3467 9.5 9.75 9.5H8.25C7.65326 9.5 7.08097 9.73706 6.65901 10.159C6.23706 10.581 6 11.1533 6 11.75V15.5H4.5C4.30109 15.5 4.11032 15.421 3.96967 15.2803C3.82902 15.1397 3.75 14.9489 3.75 14.75V8.1875C3.75014 8.08102 3.77295 7.97578 3.81692 7.87879C3.86088 7.7818 3.925 7.69529 4.005 7.625L8.505 3.6875C8.64187 3.56727 8.81782 3.50095 9 3.50095C9.18218 3.50095 9.35814 3.56727 9.495 3.6875L13.995 7.625C14.075 7.69529 14.1391 7.7818 14.1831 7.87879C14.2271 7.97578 14.2499 8.08102 14.25 8.1875V14.75Z" fill="white"/>
</svg>
