<svg width="18" height="19" viewBox="0 0 18 19" fill="none" xmlns="http://www.w3.org/2000/svg">
<path d="M2.78251 12.7175C2.71118 12.6492 2.62707 12.5957 2.53501 12.56C2.35241 12.485 2.1476 12.485 1.96501 12.56C1.87294 12.5957 1.78883 12.6492 1.71751 12.7175C1.64923 12.7888 1.5957 12.8729 1.56001 12.965C1.50257 13.1016 1.48688 13.2521 1.51491 13.3976C1.54294 13.5431 1.61344 13.677 1.71751 13.7825C1.79041 13.8487 1.87412 13.902 1.96501 13.94C2.05478 13.9797 2.15185 14.0002 2.25001 14.0002C2.34816 14.0002 2.44523 13.9797 2.53501 13.94C2.6259 13.902 2.70961 13.8487 2.78251 13.7825C2.88657 13.677 2.95707 13.5431 2.9851 13.3976C3.01313 13.2521 2.99744 13.1016 2.94001 12.965C2.90431 12.8729 2.85079 12.7888 2.78251 12.7175ZM5.25001 6.5H15.75C15.9489 6.5 16.1397 6.42098 16.2803 6.28033C16.421 6.13968 16.5 5.94891 16.5 5.75C16.5 5.55109 16.421 5.36032 16.2803 5.21967C16.1397 5.07902 15.9489 5 15.75 5H5.25001C5.05109 5 4.86033 5.07902 4.71968 5.21967C4.57902 5.36032 4.50001 5.55109 4.50001 5.75C4.50001 5.94891 4.57902 6.13968 4.71968 6.28033C4.86033 6.42098 5.05109 6.5 5.25001 6.5ZM2.78251 8.9675C2.67704 8.86343 2.54311 8.79293 2.39762 8.7649C2.25212 8.73687 2.10159 8.75257 1.96501 8.81C1.87412 8.84798 1.79041 8.90125 1.71751 8.9675C1.64923 9.03883 1.5957 9.12294 1.56001 9.215C1.52033 9.30478 1.49983 9.40185 1.49983 9.5C1.49983 9.59815 1.52033 9.69522 1.56001 9.785C1.59799 9.87589 1.65126 9.9596 1.71751 10.0325C1.79041 10.0987 1.87412 10.152 1.96501 10.19C2.05478 10.2297 2.15185 10.2502 2.25001 10.2502C2.34816 10.2502 2.44523 10.2297 2.53501 10.19C2.6259 10.152 2.70961 10.0987 2.78251 10.0325C2.84875 9.9596 2.90203 9.87589 2.94001 9.785C2.97969 9.69522 3.00018 9.59815 3.00018 9.5C3.00018 9.40185 2.97969 9.30478 2.94001 9.215C2.90431 9.12294 2.85079 9.03883 2.78251 8.9675ZM15.75 8.75H5.25001C5.05109 8.75 4.86033 8.82902 4.71968 8.96967C4.57902 9.11032 4.50001 9.30109 4.50001 9.5C4.50001 9.69891 4.57902 9.88968 4.71968 10.0303C4.86033 10.171 5.05109 10.25 5.25001 10.25H15.75C15.9489 10.25 16.1397 10.171 16.2803 10.0303C16.421 9.88968 16.5 9.69891 16.5 9.5C16.5 9.30109 16.421 9.11032 16.2803 8.96967C16.1397 8.82902 15.9489 8.75 15.75 8.75ZM2.78251 5.2175C2.71118 5.14922 2.62707 5.0957 2.53501 5.06C2.39842 5.00257 2.24789 4.98687 2.1024 5.0149C1.9569 5.04293 1.82297 5.11343 1.71751 5.2175C1.65126 5.2904 1.59799 5.37411 1.56001 5.465C1.52033 5.55478 1.49983 5.65185 1.49983 5.75C1.49983 5.84815 1.52033 5.94522 1.56001 6.035C1.59799 6.12589 1.65126 6.2096 1.71751 6.2825C1.79041 6.34875 1.87412 6.40202 1.96501 6.44C2.10159 6.49743 2.25212 6.51313 2.39762 6.4851C2.54311 6.45707 2.67704 6.38657 2.78251 6.2825C2.84875 6.2096 2.90203 6.12589 2.94001 6.035C2.97969 5.94522 3.00018 5.84815 3.00018 5.75C3.00018 5.65185 2.97969 5.55478 2.94001 5.465C2.90203 5.37411 2.84875 5.2904 2.78251 5.2175ZM15.75 12.5H5.25001C5.05109 12.5 4.86033 12.579 4.71968 12.7197C4.57902 12.8603 4.50001 13.0511 4.50001 13.25C4.50001 13.4489 4.57902 13.6397 4.71968 13.7803C4.86033 13.921 5.05109 14 5.25001 14H15.75C15.9489 14 16.1397 13.921 16.2803 13.7803C16.421 13.6397 16.5 13.4489 16.5 13.25C16.5 13.0511 16.421 12.8603 16.2803 12.7197C16.1397 12.579 15.9489 12.5 15.75 12.5Z" fill="white"/>
</svg>
